<svg width="126" height="67" viewBox="0 0 126 67" fill="none" xmlns="http://www.w3.org/2000/svg">
<g clip-path="url(#clip0_241_268)">
<path d="M4.69511 58.6977C4.69511 58.5996 4.72399 58.513 4.78174 58.4495C4.83949 58.3802 4.92612 58.3513 5.04739 58.3513H5.56137C5.68265 58.3513 5.76927 58.3802 5.82125 58.4495C5.879 58.5188 5.91365 58.6054 5.91365 58.6977V63.3395C5.91365 63.6744 5.98295 63.9111 6.1331 64.0612C6.27748 64.2113 6.49115 64.2864 6.78568 64.2864H8.28719C8.41425 64.2864 8.50087 64.3152 8.55862 64.3787C8.6106 64.4422 8.63947 64.5288 8.63947 64.6328V64.9099C8.63947 64.9965 8.6106 65.0889 8.55862 65.1581C8.50665 65.2274 8.41425 65.2621 8.28719 65.2621H6.53735C5.93675 65.2621 5.48052 65.1004 5.16867 64.7771C4.85682 64.4538 4.70089 63.9919 4.70089 63.3857L4.69511 58.6977ZM9.74828 61.163H9.29783C9.17078 61.163 9.08415 61.1283 9.0264 61.059C8.96865 60.984 8.93977 60.8916 8.94555 60.7992V60.5683C8.94555 60.4702 8.97443 60.3893 9.0264 60.3201C9.08415 60.2508 9.17078 60.2219 9.29783 60.2219H10.551C10.6723 60.2219 10.7589 60.2508 10.8167 60.3201C10.8744 60.3893 10.9033 60.4702 10.9033 60.5683V64.9157C10.9033 65.008 10.8744 65.0946 10.8167 65.1639C10.7589 65.2332 10.6723 65.2678 10.551 65.2678H10.1006C9.97928 65.2678 9.88688 65.239 9.83491 65.1639C9.77716 65.0946 9.74828 65.008 9.75406 64.9157V61.163H9.74828ZM10.1006 59.3848C9.97928 59.3848 9.88688 59.3559 9.83491 59.2866C9.77716 59.2173 9.74828 59.125 9.75406 59.0326V58.6977C9.75406 58.5996 9.78293 58.513 9.83491 58.4495C9.88688 58.3802 9.97928 58.3513 10.1006 58.3513H10.551C10.6723 58.3513 10.7589 58.3802 10.8167 58.4495C10.8744 58.5188 10.9033 58.6054 10.9033 58.6977V59.0326C10.9091 59.125 10.8744 59.2173 10.8167 59.2866C10.7589 59.3501 10.6723 59.3848 10.551 59.3848H10.1006ZM12.4164 60.5741C12.4164 60.4759 12.4452 60.3951 12.503 60.3258C12.5607 60.2565 12.6531 60.2277 12.7629 60.2277H13.2133C13.3346 60.2277 13.4212 60.2565 13.479 60.3258C13.5425 60.3951 13.5714 60.4759 13.5714 60.5741V61.1456L13.8948 60.8108C14.068 60.626 14.2759 60.4702 14.5069 60.3431C14.7379 60.2161 15.0209 60.1526 15.3616 60.1526C15.7832 60.1526 16.1239 60.2739 16.4011 60.5048C16.6726 60.7415 16.8112 61.1687 16.8112 61.7749V64.9214C16.8112 65.0196 16.7881 65.1004 16.7303 65.1697C16.6783 65.239 16.5859 65.2736 16.4647 65.2736H16.0142C15.8872 65.2736 15.8005 65.2447 15.7428 65.1697C15.685 65.1004 15.6562 65.0138 15.6619 64.9214V61.9943C15.6619 61.6479 15.5926 61.4054 15.454 61.2842C15.3212 61.1687 15.148 61.1052 14.9689 61.1052C14.7552 61.1052 14.5416 61.1861 14.3394 61.3535C14.1373 61.5151 13.9698 61.6652 13.8312 61.798L13.5714 62.0578V64.9214C13.5771 65.0138 13.5425 65.1004 13.4847 65.1697C13.427 65.239 13.3404 65.2736 13.2191 65.2736H12.7686C12.6531 65.2736 12.5607 65.2447 12.503 65.1697C12.4452 65.1004 12.4164 65.0138 12.4164 64.9214V60.5741ZM18.3011 58.6977C18.3011 58.5996 18.33 58.513 18.3935 58.4495C18.4513 58.3802 18.5379 58.3513 18.6534 58.3513H19.1039C19.2194 58.3513 19.3118 58.3802 19.3637 58.4495C19.4215 58.5188 19.4504 58.6054 19.4504 58.6977V61.1399L19.7738 60.805C19.9528 60.6203 20.1549 60.4644 20.3859 60.3374C20.6169 60.2104 20.8999 60.1469 21.2406 60.1469C21.6564 60.1469 22.0029 60.2739 22.2801 60.5279C22.5516 60.7819 22.6902 61.2322 22.6902 61.8673V64.9157C22.6902 65.0023 22.6613 65.0946 22.6093 65.1639C22.5573 65.2332 22.4649 65.2678 22.3437 65.2678H21.899C21.7777 65.2678 21.6853 65.239 21.6333 65.1639C21.5756 65.0946 21.5467 65.008 21.5525 64.9157V61.9886C21.5525 61.6421 21.4832 61.3997 21.3388 61.2784C21.206 61.163 21.0327 61.0995 20.8537 61.0995C20.6342 61.0995 20.4263 61.1803 20.2242 61.3477C20.0221 61.5094 19.8546 61.6595 19.716 61.7923L19.4561 62.0521V64.9157C19.4561 65.008 19.4273 65.0946 19.3695 65.1639C19.3118 65.2332 19.2251 65.2678 19.1096 65.2678H18.6534C18.5321 65.2678 18.4455 65.239 18.3878 65.1639C18.33 65.0946 18.2954 65.008 18.2954 64.9157L18.3011 58.6977ZM23.9029 62.8141C23.9029 62.029 24.1801 61.3997 24.7461 60.9263C25.312 60.4586 25.9415 60.2219 26.6403 60.2219H28.0263C28.1418 60.2219 28.2284 60.2508 28.2862 60.3201C28.3439 60.3893 28.3728 60.4702 28.3728 60.5683V64.9157C28.3728 65.008 28.3439 65.0946 28.2862 65.1639C28.2284 65.2332 28.136 65.2678 28.0263 65.2678H27.5759C27.4546 65.2678 27.368 65.239 27.3102 65.1639C27.2525 65.0946 27.2236 65.008 27.2236 64.9157V64.3903L26.854 64.7251C26.6634 64.8983 26.4497 65.0427 26.2187 65.1639C25.9877 65.2851 25.7047 65.3429 25.3698 65.3429C24.9829 65.3487 24.6075 65.2043 24.3303 64.933C24.0415 64.6616 23.9029 64.2171 23.9029 63.6051V62.8141ZM25.0522 63.507C25.0522 63.8534 25.1215 64.0901 25.2543 64.2055C25.3929 64.321 25.5488 64.3787 25.7452 64.3787C25.9704 64.3787 26.2014 64.2979 26.4266 64.1247C26.6518 63.9573 26.8366 63.8129 26.9695 63.6975L27.2178 63.4492V61.163H26.7038C26.2303 61.163 25.8376 61.3131 25.5199 61.6075C25.2081 61.902 25.0522 62.3003 25.0522 62.8084V63.507ZM29.6491 64.5577C29.6491 64.4596 29.6722 64.3903 29.7242 64.3441C29.7704 64.2979 29.8397 64.2806 29.9205 64.2806H29.9667L30.0187 64.2921C30.2439 64.3268 30.4518 64.3556 30.6366 64.373C30.8214 64.3903 31.0293 64.3961 31.2488 64.3961C31.5491 64.3961 31.8147 64.3556 32.0342 64.269C32.2536 64.1824 32.3634 64.0208 32.3634 63.7783C32.3691 63.6166 32.2767 63.4665 32.1324 63.3915C31.9764 63.3049 31.809 63.2414 31.6357 63.1952L30.8676 63.022C30.498 62.9296 30.2035 62.7737 29.9725 62.5659C29.7415 62.3523 29.626 62.0463 29.626 61.6421C29.626 61.1341 29.8397 60.7646 30.2613 60.5163C30.6886 60.2681 31.2026 60.1469 31.8147 60.1469C32.0573 60.1469 32.2652 60.1584 32.4327 60.1699C32.5944 60.1873 32.7849 60.2161 32.9928 60.2565C33.091 60.2681 33.1603 60.3027 33.2065 60.3605C33.247 60.4124 33.2701 60.4933 33.2701 60.5914V60.9147C33.2701 61.0071 33.247 61.0764 33.2008 61.1283C33.1488 61.1803 33.0795 61.2034 33.0102 61.2034L32.9062 61.1918L32.7676 61.1687C32.6232 61.1456 32.4731 61.1341 32.3287 61.1168C32.1612 61.0995 31.988 61.0937 31.8147 61.0937C31.5202 61.0937 31.2777 61.1341 31.0813 61.2149C30.8907 61.2958 30.7926 61.4459 30.7926 61.6537C30.7926 61.8269 30.8619 61.9424 30.9889 62.0001C31.116 62.0578 31.2603 62.1098 31.422 62.156L32.0977 62.3119C32.4846 62.4042 32.8196 62.5543 33.1084 62.7564C33.3971 62.9643 33.5357 63.3049 33.5357 63.7898C33.5357 64.3903 33.2989 64.806 32.8196 65.0196C32.346 65.239 31.8147 65.3487 31.2488 65.3487C31.0236 65.3487 30.7983 65.3371 30.5731 65.3198C30.3652 65.2967 30.1573 65.2678 29.9436 65.2447C29.8281 65.2274 29.7473 65.187 29.7126 65.1293C29.6664 65.06 29.6491 64.9792 29.6491 64.8983V64.5577ZM36.8737 62.8141C36.8737 62.029 37.1509 61.3997 37.7168 60.9263C38.2828 60.4586 38.9123 60.2219 39.6111 60.2219H40.9971C41.1126 60.2219 41.205 60.2508 41.2627 60.3201C41.3205 60.3893 41.3493 60.4702 41.3493 60.5683V64.9157C41.3493 65.008 41.3205 65.0946 41.2627 65.1639C41.205 65.2332 41.1126 65.2678 40.9971 65.2678H40.5466C40.4253 65.2678 40.3387 65.239 40.281 65.1639C40.2232 65.0946 40.1886 65.008 40.1943 64.9157V64.3903L39.8247 64.7251C39.6342 64.8983 39.4147 65.0427 39.1895 65.1639C38.9585 65.2851 38.6755 65.3429 38.3405 65.3429C37.9536 65.3487 37.5782 65.2043 37.301 64.933C37.0123 64.6616 36.8737 64.2171 36.8737 63.6051V62.8141ZM38.0229 63.507C38.0229 63.8534 38.0922 64.0901 38.225 64.2055C38.3636 64.321 38.5253 64.3787 38.7159 64.3787C38.9412 64.3787 39.1722 64.2979 39.3974 64.1247C39.6226 63.9573 39.8074 63.8129 39.9402 63.6975L40.1886 63.4492V61.163H39.6746C39.201 61.163 38.8083 61.3131 38.4907 61.6075C38.1788 61.902 38.0229 62.3003 38.0229 62.8084V63.507ZM42.539 62.3176C42.539 61.6017 42.77 61.0648 43.2378 60.7011C43.7056 60.3374 44.2715 60.1526 44.9356 60.1526C45.4727 60.1526 45.929 60.2681 46.3043 60.499C46.6797 60.73 46.8761 61.1168 46.8761 61.6479C46.8761 62.1271 46.7317 62.4908 46.4372 62.7333C46.1484 62.9758 45.7384 63.097 45.2244 63.097H43.6882V63.3164C43.6882 63.6975 43.8095 63.9688 44.0521 64.1305C44.2946 64.2921 44.5776 64.373 44.9068 64.373C45.1609 64.373 45.3919 64.3499 45.5998 64.3037C45.8077 64.2575 45.9925 64.2113 46.1542 64.1767L46.2235 64.1651L46.2812 64.1593L46.4372 64.2229C46.4776 64.269 46.5007 64.3268 46.5007 64.4076V64.6905C46.5007 64.8002 46.4834 64.8926 46.4429 64.9618C46.4083 65.0311 46.339 65.0773 46.2408 65.1062C46.0849 65.1524 45.8885 65.1928 45.6344 65.2505C45.3861 65.3025 45.132 65.3256 44.8721 65.3256C44.2138 65.3256 43.6651 65.1697 43.2147 64.8522C42.7642 64.5346 42.539 64.015 42.539 63.2876V62.3176ZM43.6882 62.3985H44.9241C45.236 62.3985 45.4554 62.3407 45.5767 62.2253C45.698 62.1156 45.7557 61.9481 45.7557 61.7345C45.7557 61.5036 45.6749 61.3362 45.5132 61.2496C45.3515 61.1572 45.1436 61.111 44.901 61.111C44.5256 61.111 44.2311 61.2091 44.0116 61.4112C43.798 61.6075 43.6882 61.9135 43.6882 62.3407V62.3985ZM44.2831 59.506L44.1445 59.4656L44.0983 59.3848L44.1098 59.327L44.156 59.2578L44.7913 58.3571C44.8432 58.2763 44.8952 58.207 44.9645 58.1493C45.028 58.0973 45.1205 58.0684 45.236 58.0684H45.825C45.9174 58.0684 45.9809 58.08 46.0214 58.1088L46.0733 58.2185L46.0445 58.3225L45.9636 58.4148L45.08 59.2635C45.0049 59.327 44.9241 59.3905 44.8432 59.4425C44.7739 59.4887 44.6931 59.5118 44.6122 59.5118L44.2831 59.506ZM47.9849 60.5741C47.9849 60.4759 48.0138 60.3951 48.0773 60.3258C48.135 60.2565 48.2217 60.2277 48.3372 60.2277H48.7876C48.9089 60.2277 48.9955 60.2565 49.0533 60.3258C49.1168 60.3951 49.1399 60.4759 49.1399 60.5741V61.1803L49.2265 61.0706C49.394 60.8166 49.5961 60.6087 49.8271 60.4471C50.0581 60.2854 50.318 60.2046 50.6183 60.2046H50.6645C50.78 60.2046 50.8724 60.2334 50.9302 60.3027C50.9879 60.3662 51.0168 60.4528 51.0168 60.5568V60.9263C51.0168 61.036 50.9879 61.1225 50.9302 61.1803C50.8724 61.2438 50.78 61.2727 50.6645 61.2727H50.5721C50.3873 61.2727 50.2083 61.3015 50.035 61.3535C49.8618 61.4054 49.7116 61.492 49.5846 61.6017C49.5788 61.6017 49.5037 61.671 49.3651 61.8038C49.29 61.8789 49.215 61.9481 49.1399 62.0174V64.9157C49.1399 65.0138 49.1168 65.0946 49.0533 65.1639C48.9955 65.2332 48.9089 65.2678 48.7934 65.2678H48.3372C48.2159 65.2678 48.1293 65.239 48.0773 65.1639C48.0195 65.0946 47.9849 65.008 47.9849 64.9157V60.5741ZM51.4846 62.3176C51.4846 61.6017 51.7156 61.0648 52.1833 60.7011C52.6511 60.3374 53.2171 60.1526 53.8812 60.1526C54.4183 60.1526 54.8745 60.2681 55.2499 60.499C55.6253 60.73 55.8158 61.1168 55.8158 61.6479C55.8158 62.1271 55.6715 62.4908 55.3769 62.7333C55.0882 62.9758 54.6839 63.097 54.1642 63.097H52.6338V63.3164C52.6338 63.6975 52.7551 63.9688 52.9918 64.1305C53.2344 64.2921 53.5174 64.373 53.8466 64.373C54.1007 64.373 54.3317 64.3499 54.5396 64.3037C54.7475 64.2575 54.9323 64.2113 55.0882 64.1767L55.1575 64.1651L55.221 64.1593L55.3712 64.2229C55.4116 64.269 55.4347 64.3268 55.4347 64.4076V64.6905C55.4347 64.8002 55.4174 64.8926 55.3827 64.9618C55.3423 65.0311 55.2788 65.0773 55.1748 65.1062C55.0189 65.1524 54.8168 65.1928 54.5742 65.2505C54.3259 65.3025 54.066 65.3256 53.8119 65.3256C53.1535 65.3256 52.5991 65.1697 52.1487 64.8522C51.6982 64.5346 51.4788 64.015 51.4788 63.2876L51.4846 62.3176ZM52.6396 62.3985H53.8754C54.1873 62.3985 54.4067 62.3407 54.5222 62.2253C54.6435 62.1156 54.7013 61.9481 54.7013 61.7345C54.7013 61.5036 54.6204 61.3362 54.4587 61.2496C54.297 61.1572 54.0891 61.111 53.8466 61.111C53.4712 61.111 53.1766 61.2091 52.963 61.4112C52.7435 61.6075 52.6396 61.9135 52.6396 62.3407V62.3985ZM56.6532 62.8141C56.6532 62.029 56.9362 61.3997 57.4964 60.9263C58.0623 60.4586 58.6918 60.2219 59.3964 60.2219H60.7824C60.8979 60.2219 60.9845 60.2508 61.0423 60.3201C61.1 60.3893 61.1289 60.4702 61.1289 60.5683V64.9157C61.1289 65.008 61.1 65.0946 61.0423 65.1639C60.9845 65.2332 60.8921 65.2678 60.7824 65.2678H60.3319C60.2106 65.2678 60.124 65.239 60.0663 65.1639C60.0085 65.0946 59.9796 65.008 59.9796 64.9157V64.3903L59.61 64.7251C59.4195 64.8983 59.2058 65.0427 58.9748 65.1639C58.7438 65.2851 58.4608 65.3429 58.1259 65.3429C57.7389 65.3487 57.3636 65.2043 57.0864 64.933C56.7976 64.6616 56.659 64.2171 56.659 63.6051L56.6532 62.8141ZM57.8025 63.507C57.8025 63.8534 57.8718 64.0901 58.0046 64.2055C58.1374 64.321 58.3049 64.3787 58.4955 64.3787C58.7207 64.3787 58.9517 64.2979 59.1769 64.1247C59.4021 63.9573 59.5869 63.8129 59.7198 63.6975L59.9681 63.4492V61.163H59.4541C58.9806 61.163 58.5879 61.3131 58.2702 61.6075C57.9584 61.902 57.8025 62.3003 57.8025 62.8084V63.507ZM62.3994 64.5577C62.3994 64.4596 62.4225 64.3903 62.4745 64.3441C62.5207 64.2979 62.59 64.2806 62.6708 64.2806H62.717L62.769 64.2921C62.9942 64.3268 63.2021 64.3556 63.3927 64.373C63.5775 64.3903 63.7796 64.3961 63.9991 64.3961C64.3052 64.3961 64.565 64.3556 64.7845 64.269C65.0097 64.1824 65.1194 64.0208 65.1194 63.7783C65.1252 63.6166 65.0328 63.4665 64.8884 63.3915C64.7325 63.3049 64.565 63.2414 64.3918 63.1952L63.6237 63.022C63.2541 62.9296 62.9538 62.7737 62.7228 62.5659C62.4918 62.358 62.3763 62.0463 62.3763 61.6421C62.3763 61.1341 62.59 60.7646 63.0115 60.5163C63.4389 60.2681 63.9529 60.1469 64.5593 60.1469C64.8076 60.1469 65.0155 60.1584 65.1772 60.1699C65.3447 60.1873 65.5352 60.2161 65.7432 60.2565C65.8413 60.2681 65.9106 60.3027 65.9568 60.3605C65.9972 60.4124 66.0203 60.4933 66.0203 60.5914V60.9147C66.0203 61.0071 65.9973 61.0764 65.9511 61.1283C65.8991 61.1803 65.8298 61.2034 65.7605 61.2034L65.6565 61.1918L65.5179 61.1687C65.3909 61.1514 65.2407 61.1341 65.079 61.1168C64.9173 61.0995 64.7441 61.0937 64.565 61.0937C64.2705 61.0937 64.028 61.1341 63.8316 61.2149C63.641 61.2958 63.5429 61.4459 63.5429 61.6537C63.5429 61.8269 63.6122 61.9424 63.7392 62.0001C63.8663 62.0578 64.0106 62.1098 64.1723 62.156L64.848 62.3119C65.2349 62.4042 65.5699 62.5543 65.8587 62.7564C66.1474 62.9643 66.286 63.3049 66.286 63.7898C66.286 64.3903 66.0492 64.806 65.5699 65.0196C65.0963 65.239 64.5708 65.3487 63.9933 65.3487C63.745 65.3487 63.5198 65.3371 63.3234 65.3198C63.1271 65.2967 62.9191 65.2736 62.6939 65.2447C62.5784 65.2274 62.4976 65.187 62.4629 65.1293C62.4167 65.06 62.3994 64.9792 62.3994 64.8983V64.5577ZM70.0571 61.163H69.6067C69.4796 61.163 69.393 61.1283 69.3352 61.059C69.2775 60.984 69.2486 60.8916 69.2544 60.7992V60.5683C69.2544 60.4702 69.2833 60.3893 69.3352 60.3201C69.393 60.2508 69.4796 60.2219 69.6067 60.2219H70.8598C70.9753 60.2219 71.0677 60.2508 71.1197 60.3201C71.1775 60.3893 71.2063 60.4702 71.2063 60.5683V64.9157C71.2063 65.008 71.1775 65.0946 71.1197 65.1639C71.062 65.2332 70.9753 65.2678 70.8598 65.2678H70.4036C70.2823 65.2678 70.1899 65.239 70.138 65.1639C70.0802 65.0946 70.0513 65.008 70.0571 64.9157V61.163ZM70.4036 59.3848C70.2823 59.3848 70.1899 59.3559 70.138 59.2866C70.0802 59.2173 70.0513 59.125 70.0571 59.0326V58.6977C70.0571 58.5996 70.086 58.513 70.138 58.4495C70.1899 58.3802 70.2823 58.3513 70.4036 58.3513H70.8598C70.9753 58.3513 71.0677 58.3802 71.1197 58.4495C71.1775 58.5188 71.2063 58.6054 71.2063 58.6977V59.0326C71.2121 59.125 71.1775 59.2173 71.1197 59.2866C71.062 59.3501 70.9753 59.3848 70.8598 59.3848H70.4036ZM72.7252 60.5741C72.7252 60.4759 72.7541 60.3951 72.8118 60.3258C72.8696 60.2565 72.962 60.2277 73.0717 60.2277H73.5279C73.6434 60.2277 73.73 60.2565 73.7878 60.3258C73.8455 60.3951 73.8744 60.4759 73.8744 60.5741V61.1456L74.1978 60.8108C74.3768 60.626 74.579 60.4702 74.81 60.3431C75.041 60.2161 75.324 60.1526 75.6589 60.1526C76.0805 60.1526 76.427 60.2739 76.6984 60.5048C76.9698 60.7415 77.1084 61.1687 77.1084 61.7749V64.9214C77.1084 65.0138 77.0796 65.1004 77.0276 65.1697C76.9756 65.239 76.8832 65.2736 76.7562 65.2736H76.3057C76.1844 65.2736 76.092 65.2447 76.0343 65.1697C75.9765 65.1004 75.9534 65.0138 75.9534 64.9214V61.9943C75.9534 61.6479 75.8841 61.4054 75.7455 61.2842C75.6127 61.1687 75.4395 61.1052 75.2604 61.1052C75.0467 61.1052 74.8389 61.1861 74.631 61.3535C74.4519 61.492 74.2844 61.6422 74.1227 61.798L73.8629 62.0578V64.9214C73.8629 65.0138 73.834 65.1004 73.7762 65.1697C73.7185 65.239 73.6261 65.2736 73.5164 65.2736H73.0601C72.9446 65.2736 72.8522 65.2447 72.8003 65.1697C72.7425 65.1004 72.7136 65.0138 72.7136 64.9214L72.7252 60.5741ZM78.685 61.163H78.3039C78.1826 61.163 78.0902 61.1283 78.0382 61.059C77.9863 60.9898 77.9574 60.9032 77.9574 60.7992V60.5683C77.9574 60.4702 77.9863 60.3893 78.0382 60.3201C78.0902 60.2508 78.1826 60.2219 78.3039 60.2219H78.685V59.3732C78.685 59.2808 78.7139 59.1942 78.7717 59.125C78.8294 59.0557 78.916 59.021 79.0315 59.021H79.482C79.5975 59.021 79.6899 59.0557 79.7476 59.125C79.8054 59.1942 79.8343 59.2751 79.8343 59.3732V60.2219H80.8391C80.9604 60.2219 81.0528 60.2508 81.1106 60.3201C81.1625 60.3893 81.1914 60.4702 81.1914 60.5683V60.7992C81.1914 60.9032 81.1683 60.9898 81.1106 61.059C81.0528 61.1283 80.9662 61.163 80.8391 61.163H79.8343V63.2645C79.8343 63.6802 79.9093 63.963 80.0537 64.1074C80.2039 64.2575 80.458 64.3268 80.8218 64.3268H80.9893C81.1048 64.3268 81.1972 64.3614 81.2492 64.4307C81.3127 64.5057 81.3416 64.5981 81.3416 64.6963V64.9214C81.3473 65.0138 81.3127 65.1004 81.2549 65.1697C81.1972 65.239 81.1106 65.2736 80.9893 65.2736H80.4984C79.9267 65.2736 79.482 65.1293 79.1644 64.8406C78.8467 64.5519 78.685 64.0958 78.685 63.4723V61.163ZM82.0577 62.3176C82.0577 61.6017 82.2887 61.0648 82.7564 60.7011C83.2242 60.3374 83.7902 60.1526 84.4543 60.1526C84.9856 60.1526 85.4476 60.2681 85.823 60.499C86.1984 60.73 86.3889 61.1168 86.3889 61.6479C86.3889 62.1271 86.2388 62.4908 85.95 62.7333C85.6613 62.9758 85.2513 63.097 84.7373 63.097H83.2011V63.3164C83.2011 63.6975 83.3224 63.9688 83.5649 64.1305C83.8075 64.2921 84.0905 64.373 84.4197 64.373C84.6507 64.373 84.8817 64.3499 85.1127 64.3037C85.3206 64.2575 85.5054 64.2113 85.6671 64.1767L85.7364 64.1651L85.7941 64.1593L85.95 64.2229C85.9905 64.269 86.0078 64.3268 86.0078 64.4076V64.6905C86.0078 64.8002 85.9905 64.8926 85.9558 64.9618C85.9154 65.0311 85.8519 65.0773 85.7479 65.1062C85.592 65.1524 85.3899 65.1928 85.1415 65.2505C84.8932 65.3025 84.6391 65.3256 84.385 65.3256C83.7266 65.3256 83.1722 65.1697 82.7218 64.8522C82.2713 64.5346 82.0461 64.015 82.0461 63.2876L82.0577 62.3176ZM83.2069 62.3985H84.4428C84.7546 62.3985 84.9683 62.3407 85.0953 62.2253C85.2108 62.1156 85.2744 61.9481 85.2744 61.7345C85.2744 61.5036 85.1935 61.3362 85.0318 61.2496C84.8701 61.1572 84.6622 61.111 84.4197 61.111C84.0443 61.111 83.7498 61.2091 83.5303 61.4112C83.3166 61.6075 83.2069 61.9135 83.2069 62.3407V62.3985ZM87.5555 59.2924H87.1051C86.9838 59.2924 86.8971 59.2577 86.8394 59.1885C86.7759 59.1192 86.747 59.021 86.747 58.9287V58.6977C86.747 58.5996 86.7759 58.513 86.8336 58.4495C86.8914 58.3802 86.978 58.3513 87.0993 58.3513H88.3525C88.468 58.3513 88.5604 58.3802 88.6123 58.4495C88.6701 58.5188 88.699 58.6054 88.699 58.6977V64.9157C88.699 65.008 88.6701 65.0946 88.6123 65.1639C88.5546 65.2332 88.4622 65.2678 88.3525 65.2678H87.902C87.7807 65.2678 87.6941 65.239 87.6364 65.1639C87.5786 65.0946 87.544 65.008 87.544 64.9157L87.5555 59.2924ZM90.368 61.163H89.9175C89.7904 61.163 89.7038 61.1283 89.6461 61.059C89.5883 60.984 89.5594 60.8916 89.5652 60.7992V60.5683C89.5652 60.4702 89.5941 60.3893 89.6461 60.3201C89.6981 60.2508 89.7904 60.2219 89.9175 60.2219H91.1707C91.2862 60.2219 91.3786 60.2508 91.4363 60.3201C91.4941 60.3893 91.523 60.4702 91.523 60.5683V64.9157C91.523 65.008 91.4941 65.0946 91.4363 65.1639C91.3786 65.2332 91.2862 65.2678 91.1707 65.2678H90.7202C90.5932 65.2678 90.5066 65.239 90.4488 65.1639C90.3911 65.0946 90.3622 65.008 90.368 64.9157V61.163ZM90.7202 59.3848C90.5932 59.3848 90.5066 59.3559 90.4488 59.2866C90.3911 59.2173 90.3622 59.125 90.368 59.0326V58.6977C90.368 58.5996 90.3968 58.513 90.4488 58.4495C90.5008 58.3802 90.5932 58.3513 90.7202 58.3513H91.1707C91.2862 58.3513 91.3786 58.3802 91.4363 58.4495C91.4941 58.5188 91.523 58.6054 91.523 58.6977V59.0326C91.5287 59.125 91.4941 59.2173 91.4363 59.2866C91.3786 59.3501 91.2862 59.3848 91.1707 59.3848H90.7202ZM94.2546 66.0588C94.8898 66.0588 95.3576 65.9606 95.6521 65.7643C95.9524 65.568 96.1026 65.187 96.1026 64.627V64.4596L95.9062 64.5693C95.6983 64.6847 95.4731 64.7771 95.2479 64.8522C95.0111 64.933 94.7281 64.9734 94.3932 64.9734C93.9254 64.9734 93.5269 64.8175 93.2208 64.5115C92.909 64.2055 92.7588 63.7494 92.7588 63.1375V62.7391C92.7588 61.9308 93.0071 61.3073 93.5096 60.8685C94.012 60.4355 94.6126 60.2161 95.3172 60.2161H96.9053C97.0266 60.2161 97.119 60.245 97.1767 60.3143C97.2403 60.3836 97.2691 60.4644 97.2691 60.5625V64.5923C97.2691 65.4237 97.0266 66.0357 96.5473 66.4167C96.0622 66.8035 95.4038 66.9941 94.5664 66.9941H93.6135C93.4923 66.9941 93.3999 66.9594 93.3421 66.8901C93.2844 66.8209 93.2497 66.7285 93.2555 66.6361V66.411C93.2555 66.307 93.2844 66.2204 93.3421 66.1569C93.4056 66.0877 93.4923 66.053 93.6135 66.053H94.2546V66.0588ZM95.4442 61.163C94.9649 61.163 94.5895 61.3015 94.3123 61.5844C94.0351 61.8615 93.9023 62.2599 93.9023 62.768V63.0739C93.9023 63.4088 93.9716 63.6455 94.116 63.7956C94.2546 63.9457 94.4567 64.0208 94.7166 64.0208C94.9418 64.0208 95.1612 63.9919 95.3518 63.9284C95.5482 63.8649 95.7388 63.7956 95.9178 63.7148L96.1026 63.634V61.163H95.4442ZM98.4415 62.3176C98.4415 61.6017 98.6725 61.0648 99.1402 60.7011C99.608 60.3374 100.168 60.1526 100.838 60.1526C101.375 60.1526 101.831 60.2681 102.207 60.499C102.582 60.73 102.773 61.1168 102.773 61.6479C102.773 62.1271 102.628 62.4908 102.334 62.7333C102.039 62.9758 101.641 63.097 101.121 63.097H99.5907V63.3164C99.5907 63.6975 99.7062 63.9688 99.9488 64.1305C100.191 64.2921 100.474 64.373 100.809 64.373C101.063 64.373 101.294 64.3499 101.502 64.3037C101.71 64.2575 101.895 64.2113 102.051 64.1767L102.12 64.1651L102.184 64.1593L102.334 64.2229C102.374 64.269 102.397 64.3268 102.397 64.4076V64.6905C102.397 64.8002 102.38 64.8926 102.345 64.9618C102.305 65.0311 102.241 65.0773 102.143 65.1062C101.987 65.1524 101.785 65.1928 101.543 65.2505C101.294 65.3025 101.034 65.3256 100.78 65.3256C100.122 65.3256 99.5676 65.1697 99.1172 64.8522C98.6667 64.5346 98.4472 64.015 98.4472 63.2876L98.4415 62.3176ZM99.5965 62.3985H100.832C101.144 62.3985 101.364 62.3407 101.485 62.2253C101.606 62.1156 101.664 61.9481 101.664 61.7345C101.664 61.5036 101.583 61.3362 101.421 61.2496C101.26 61.1572 101.052 61.111 100.809 61.111C100.434 61.111 100.139 61.2091 99.9257 61.4112C99.7062 61.6075 99.6023 61.9135 99.6023 62.3407L99.5965 62.3985ZM103.893 60.5741C103.893 60.4759 103.922 60.3951 103.98 60.3258C104.037 60.2565 104.13 60.2277 104.245 60.2277H104.696C104.811 60.2277 104.904 60.2565 104.956 60.3258C105.013 60.3951 105.042 60.4759 105.042 60.5741V61.1456L105.366 60.8108C105.545 60.626 105.747 60.4702 105.978 60.3431C106.209 60.2161 106.492 60.1526 106.827 60.1526C107.248 60.1526 107.595 60.2739 107.866 60.5048C108.138 60.7415 108.276 61.1687 108.276 61.7749V64.9214C108.276 65.008 108.248 65.1004 108.196 65.1697C108.144 65.239 108.051 65.2736 107.924 65.2736H107.474C107.347 65.2736 107.26 65.2447 107.208 65.1697C107.15 65.1004 107.121 65.0138 107.127 64.9214V61.9943C107.127 61.6479 107.058 61.4054 106.919 61.2842C106.786 61.1687 106.613 61.1052 106.434 61.1052C106.22 61.1052 106.013 61.1861 105.805 61.3535C105.631 61.492 105.458 61.6422 105.296 61.798L105.037 62.0578V64.9214C105.037 65.0138 105.008 65.1004 104.95 65.1697C104.892 65.239 104.806 65.2736 104.69 65.2736H104.24C104.118 65.2736 104.032 65.2447 103.974 65.1697C103.916 65.1004 103.887 65.0138 103.887 64.9214L103.893 60.5741ZM109.853 61.163H109.472C109.351 61.163 109.258 61.1283 109.206 61.059C109.154 60.9898 109.125 60.9032 109.125 60.7992V60.5683C109.125 60.4702 109.154 60.3893 109.206 60.3201C109.258 60.2508 109.351 60.2219 109.472 60.2219H109.853V59.3732C109.853 59.2808 109.882 59.1942 109.94 59.125C109.997 59.0557 110.09 59.021 110.205 59.021H110.656C110.777 59.021 110.864 59.0557 110.921 59.125C110.979 59.1942 111.008 59.2751 111.008 59.3732V60.2219H112.013C112.134 60.2219 112.227 60.2508 112.284 60.3201C112.336 60.3893 112.365 60.4702 112.365 60.5683V60.7992C112.371 60.8916 112.342 60.984 112.284 61.059C112.227 61.1283 112.134 61.163 112.013 61.163H111.008V63.2645C111.008 63.6802 111.083 63.963 111.227 64.1074C111.372 64.2575 111.632 64.3268 111.99 64.3268H112.157C112.273 64.3268 112.365 64.3614 112.423 64.4307C112.481 64.5 112.509 64.5866 112.509 64.6963V64.9214C112.509 65.0196 112.481 65.1004 112.423 65.1697C112.365 65.239 112.273 65.2736 112.157 65.2736H111.666C111.095 65.2736 110.65 65.1293 110.332 64.8406C110.015 64.5519 109.853 64.0958 109.853 63.4723V61.163ZM113.231 62.3176C113.231 61.6017 113.462 61.0648 113.936 60.7011C114.404 60.3374 114.964 60.1526 115.634 60.1526C116.171 60.1526 116.627 60.2681 117.002 60.499C117.378 60.73 117.568 61.1168 117.568 61.6479C117.568 62.1271 117.418 62.4908 117.13 62.7333C116.841 62.9758 116.431 63.097 115.917 63.097H114.381V63.3164C114.381 63.6975 114.502 63.9688 114.744 64.1305C114.987 64.2921 115.27 64.373 115.599 64.373C115.853 64.373 116.084 64.3499 116.292 64.3037C116.5 64.2575 116.685 64.2113 116.847 64.1767L116.916 64.1651L116.974 64.1593L117.13 64.2229C117.17 64.269 117.193 64.3268 117.193 64.4076V64.6905C117.193 64.8002 117.176 64.8926 117.135 64.9618C117.101 65.0311 117.031 65.0773 116.933 65.1062C116.777 65.1524 116.575 65.1928 116.327 65.2505C116.078 65.3025 115.824 65.3256 115.57 65.3256C114.912 65.3256 114.358 65.1697 113.907 64.8522C113.457 64.5346 113.231 64.015 113.231 63.2876V62.3176ZM114.381 62.3985H115.622C115.934 62.3985 116.148 62.3407 116.269 62.2253C116.39 62.1156 116.448 61.9481 116.448 61.7345C116.448 61.5036 116.367 61.3362 116.206 61.2496C116.044 61.1572 115.836 61.111 115.593 61.111C115.218 61.111 114.923 61.2091 114.71 61.4112C114.49 61.6075 114.381 61.9135 114.381 62.3407V62.3985ZM118.487 64.5577C118.487 64.4596 118.51 64.3903 118.562 64.3441C118.608 64.2979 118.677 64.2806 118.758 64.2806H118.804L118.856 64.2921C119.087 64.3268 119.289 64.3556 119.474 64.373C119.659 64.3903 119.867 64.3961 120.086 64.3961C120.387 64.3961 120.647 64.3556 120.872 64.269C121.091 64.1824 121.207 64.0208 121.207 63.7783C121.207 63.6051 121.126 63.4781 120.976 63.3915C120.82 63.3049 120.652 63.2414 120.479 63.1952L119.711 63.022C119.341 62.9296 119.041 62.7737 118.816 62.5659C118.585 62.3523 118.469 62.0463 118.469 61.6421C118.469 61.1341 118.683 60.7646 119.105 60.5163C119.532 60.2681 120.046 60.1469 120.652 60.1469C120.901 60.1469 121.109 60.1584 121.27 60.1699C121.432 60.1873 121.623 60.2161 121.83 60.2565C121.929 60.2681 121.998 60.3027 122.044 60.3605C122.085 60.4124 122.108 60.4933 122.108 60.5914V60.9147C122.108 61.0071 122.085 61.0764 122.038 61.1283C121.986 61.1803 121.923 61.2034 121.848 61.2034L121.744 61.1918L121.605 61.1687C121.478 61.1514 121.328 61.1341 121.166 61.1168C121.005 61.0995 120.831 61.0937 120.652 61.0937C120.358 61.0937 120.115 61.1341 119.919 61.2149C119.728 61.2958 119.63 61.4459 119.63 61.6537C119.63 61.8269 119.699 61.9424 119.826 62.0001C119.954 62.0578 120.104 62.1098 120.26 62.156L120.935 62.3119C121.322 62.4042 121.657 62.5543 121.946 62.7564C122.229 62.9643 122.373 63.3049 122.373 63.7898C122.373 64.3903 122.137 64.806 121.657 65.0196C121.184 65.239 120.652 65.3487 120.086 65.3487C119.861 65.3487 119.636 65.3429 119.411 65.3198C119.203 65.2967 118.995 65.2678 118.781 65.2447C118.666 65.2274 118.585 65.187 118.55 65.1293C118.504 65.06 118.487 64.9792 118.487 64.8983V64.5577ZM64.6055 51.6023C78.8583 51.6023 90.4142 40.0497 90.4142 25.801C90.4142 11.5524 78.8641 -0.000158074 64.6055 -0.000158074C52.4605 -0.000158074 42.2791 8.38278 39.5302 19.6755C39.3974 20.2297 38.8949 20.6223 38.3232 20.6223H26.9984C26.3111 20.6223 25.7567 21.1766 25.7567 21.8636V29.6808C25.7567 30.3678 26.3111 30.922 26.9984 30.922H34.8524C35.5396 30.922 36.0941 31.4763 36.0941 32.1633V36.8628C36.0941 37.2323 35.9266 37.5845 35.6378 37.8212C32.8658 40.0901 29.395 41.3314 25.8087 41.3314C17.227 41.3314 10.2738 34.3745 10.2738 25.801C10.2738 17.2276 17.2327 10.2707 25.8087 10.2707C28.24 10.2707 30.5442 10.8307 32.5944 11.8295C33.1777 12.1124 33.8764 11.9045 34.2056 11.3445L38.1962 4.63586C38.3694 4.34142 38.4156 3.98924 38.3232 3.66016C38.2308 3.33108 38.0056 3.05396 37.6995 2.89808C34.0266 0.987089 29.9494 -0.00593145 25.8087 -0.000158074C11.5559 -0.000158074 0 11.5524 0 25.801C0 40.0497 11.5559 51.6023 25.8087 51.6023C33.0679 51.6023 39.6226 48.6059 44.3177 43.7851C44.5487 43.5426 44.8721 43.4098 45.2071 43.4098C45.542 43.4098 45.8654 43.5484 46.0964 43.7851C50.7858 48.6059 57.3462 51.6023 64.6055 51.6023ZM64.6055 41.3314C56.0295 41.3314 49.0706 34.3745 49.0706 25.801C49.0706 17.2276 56.0237 10.2707 64.6055 10.2707C73.1872 10.2707 80.1346 17.2218 80.1346 25.801C80.1346 34.3803 73.1814 41.3314 64.6055 41.3314Z" fill="#EB7302"/>
<path d="M107.225 20.8361C104.904 8.96605 94.4509 0 81.8902 0C78.9449 0 76.0227 0.502284 73.2449 1.48376C78.1768 3.24464 82.4619 6.4604 85.5285 10.7038C92.3546 12.3435 97.4251 18.4748 97.4251 25.8012C97.4251 34.3804 90.4719 41.3316 81.8902 41.3316C73.3085 41.3316 66.3553 34.3747 66.3553 25.8012C66.3553 20.4262 69.0869 15.6863 73.2392 12.8977C70.6866 11.183 67.6778 10.2651 64.5997 10.2708C63.3754 10.2708 62.1511 10.4152 60.9614 10.6981C57.7794 15.0916 56.0699 20.3742 56.0815 25.8012C56.0815 40.0499 67.6374 51.6024 81.8902 51.6024C94.4451 51.6024 104.904 42.6421 107.22 30.7663L107.225 20.8361Z" fill="#B0B0B3"/>
<path d="M108.929 40.685C108.247 40.685 107.693 40.1307 107.687 39.4495V39.4437V2.04956C107.687 1.36253 107.133 0.808289 106.446 0.808289H98.6551C97.9679 0.808289 97.4135 1.36253 97.4135 2.04956V49.7145C97.4135 50.4016 97.9679 50.9558 98.6551 50.9558H124.764C125.451 50.9558 126 50.4016 126 49.7145V41.9263C126 41.2392 125.446 40.685 124.764 40.685H108.929Z" fill="#EB7302"/>
</g>
<defs>
<clipPath id="clip0_241_268">
<rect width="126" height="67" fill="white"/>
</clipPath>
</defs>
</svg>
