<svg width="119" height="107" viewBox="0 0 119 107" fill="none" xmlns="http://www.w3.org/2000/svg">
<path fill-rule="evenodd" clip-rule="evenodd" d="M19.7359 2.79405e-05H98.6275L99.6509 0.0188696L100.646 0.0942362L101.639 0.207286L102.61 0.361172L103.564 0.562153L104.504 0.800827L105.419 1.08033L106.314 1.40065L107.187 1.75551L108.037 2.14806L108.865 2.58144L109.666 3.04308L110.435 3.53612L111.18 4.06999L111.901 4.63212L112.58 5.21938L113.238 5.83804L113.854 6.47867L114.445 7.15387L114.992 7.85417L115.5 8.57647L115.974 9.32389L116.412 10.0901L116.813 10.8784L117.157 11.6855L117.471 12.5114L117.735 13.3593L117.958 14.2198L118.128 15.0959L118.254 15.9815L118.334 16.8891L118.358 17.8061V88.9896L118.334 89.9038L118.254 90.8048L118.128 91.6992L117.958 92.5731L117.735 93.4342L117.471 94.2815L117.157 95.1024L116.813 95.9098L116.412 96.704L115.974 97.465L115.5 98.2124L114.992 98.9331L114.445 99.6337L113.854 100.301L113.238 100.948L112.58 101.569L111.901 102.156L111.18 102.717L110.435 103.244L109.666 103.738L108.865 104.198L108.037 104.625L107.187 105.019L106.314 105.379L105.419 105.693L104.504 105.973L103.564 106.213L102.61 106.414L101.639 106.567L100.646 106.68L99.6509 106.754L98.6275 106.774H19.7359L18.7149 106.754L17.7166 106.681L16.7252 106.567L15.756 106.414L14.7946 106.213L13.8623 105.973L12.9451 105.693L12.0501 105.379L11.1697 105.019L10.3193 104.625L9.4981 104.198L8.69189 103.738L7.92257 103.244L7.17519 102.717L6.45774 102.156L5.77719 101.569L5.11892 100.948L4.50486 100.301L3.92038 99.6337L3.36585 98.9331L2.85518 98.2124L2.38175 97.465L1.94557 96.704L1.54594 95.9098L1.19818 95.1024L0.887673 94.2815L0.621371 93.4342L0.399279 92.5731L0.229403 91.6992L0.103388 90.8048L0.0222789 89.9038L0 88.9896V17.8061L0.0222789 16.8891L0.103388 15.9815L0.229403 15.0959L0.399279 14.2198L0.621371 13.3593L0.887673 12.5114L1.19818 11.6855L1.54629 10.8784L1.94557 10.0901L2.38175 9.32389L2.85518 8.57647L3.36585 7.85417L3.92038 7.15387L4.50486 6.47867L5.11892 5.83804L5.77719 5.21938L6.45774 4.63212L7.17519 4.06999L7.92257 3.53612L8.69189 3.04308L9.4981 2.58144L10.3193 2.14806L11.1697 1.75551L12.0501 1.40065L12.9451 1.08033L13.8623 0.800827L14.7946 0.562153L15.756 0.361172L16.7252 0.207286L17.7166 0.0942362L18.7149 0.0188696L19.7359 2.79405e-05Z" fill="#1A5493"/>
<path fill-rule="evenodd" clip-rule="evenodd" d="M9.86048 88.9761H19.0627V53.3796H9.86048V88.9761ZM60.2967 61.5205H59.771L59.2524 61.5362L58.7406 61.555L58.2463 61.5833L57.759 61.6084L57.2786 61.6493L56.8052 61.6964L56.3387 61.7435L55.8862 61.8031L55.4441 61.8628L55.0055 61.9288L54.5773 62.001L54.163 62.0764L53.7557 62.1549L53.3554 62.2428L52.9655 62.3307L52.5861 62.4218L52.2171 62.516L51.862 62.6165L51.5139 62.717L51.1728 62.8175L50.8491 62.9243L50.5323 63.031L50.2259 63.1441L49.93 63.2509L49.6446 63.3639L49.3696 63.477L49.1016 63.59L48.8509 63.7031L48.6072 63.8161L48.3775 63.9323L48.1547 64.0454L49.8883 69.2899L50.0867 69.1831L50.2956 69.0763L50.5079 68.9695L50.7307 68.869L50.9604 68.7686L51.1972 68.6681L51.4408 68.5676L51.6915 68.4765L51.9526 68.3823L52.2171 68.2881L52.4852 68.1939L52.7567 68.1091L53.0317 68.0274L53.3137 67.9426L53.5991 67.861L53.888 67.7887L54.1839 67.7134L54.4798 67.6474L54.7827 67.5815L55.0786 67.5218L55.3849 67.4621L55.6947 67.4088L55.9976 67.3617L56.3074 67.3145L56.6102 67.2737L56.9235 67.2423L57.2333 67.2078L57.5362 67.1889L57.846 67.1669L58.1489 67.1481L58.4622 67.1418H58.765L59.2524 67.1481L59.7258 67.1669L60.1679 67.2015L60.5821 67.2423L60.9825 67.302L61.3619 67.3679L61.717 67.4464L62.0477 67.5344L62.3679 67.6349L62.6638 67.7416L62.9353 67.8547L63.186 67.974L63.4227 68.1028L63.6455 68.2347L63.8543 68.376L64.0388 68.5142L64.2094 68.6618L64.3695 68.8157L64.5123 68.9633L64.6376 69.1171L64.749 69.2773L64.8534 69.4312L64.9404 69.5819L65.0205 69.7358L65.0901 69.8897L65.1389 70.0373L65.1841 70.1849L65.2224 70.3231L65.2502 70.4644L65.2677 70.5963L65.2816 70.725V71.1301L64.1781 71.1396L63.0989 71.1647L62.0477 71.2118L61.0277 71.2777L60.0356 71.3657L59.0748 71.4787L58.1349 71.6043L57.2333 71.7582L56.3596 71.9247L55.5241 72.1194L54.7096 72.3329L53.9333 72.5653L53.1953 72.8197L52.4852 73.0929L51.8029 73.3881L51.1589 73.7021L50.5532 74.035L49.9823 74.3867L49.4427 74.7604L48.9484 75.1624L48.4819 75.576L48.0607 76.0097L47.6743 76.4701L47.3192 76.944L47.0164 77.4376L46.7449 77.9583L46.5151 78.4922L46.3306 79.0527L46.1809 79.6265L46.0695 80.2207L46.0104 80.8412L45.9895 81.4753L45.9964 81.8556L46.0243 82.2359L46.0765 82.6162L46.1531 82.9899L46.2471 83.3636L46.3585 83.7373L46.4907 84.1044L46.6474 84.4649L46.818 84.8185L47.0164 85.1655L47.2322 85.506L47.462 85.8395L47.7126 86.1664L47.9876 86.4801L48.2835 86.7872L48.5933 87.0809L48.924 87.361L49.2721 87.6279L49.6446 87.8817L50.0275 88.1219L50.4348 88.3487L50.863 88.5622L51.3086 88.7557L51.775 88.9293L52.2554 89.0895L52.7497 89.2295L53.2754 89.3498L53.808 89.4497L54.3615 89.5298L54.9323 89.5901L55.5241 89.6233L56.1298 89.6365L56.4988 89.6299L56.8643 89.6168L57.2194 89.6032L57.5745 89.5766L57.9191 89.5433L58.2672 89.5031L58.6084 89.4566L58.9495 89.4032L59.2802 89.3363L59.6074 89.2697L59.9312 89.1963L60.2514 89.1162L60.5612 89.0295L60.8711 88.9359L61.1739 88.8291L61.4698 88.7224L61.7587 88.609L62.0477 88.4887L62.3296 88.3688L62.6046 88.2353L62.8692 88.0952L63.1268 87.9548L63.3879 87.8016L63.6315 87.648L63.8752 87.4879L64.1119 87.3211L64.3417 87.1475L64.5575 86.9672L64.7699 86.7872L64.9787 86.6004L65.1771 86.4066L65.3686 86.2066H65.473L66.4791 88.9761H73.9669V73.1997L73.9564 72.5998L73.9216 72.0126L73.8694 71.4316L73.7963 70.8569L73.6988 70.2916L73.5735 69.7358L73.4342 69.1956L73.2637 68.6681L73.0618 68.1499L72.8494 67.6474L72.5953 67.1607L72.3238 66.6865L72.0209 66.228L71.6937 65.7852L71.3317 65.3581L70.9488 64.953L70.5345 64.5635L70.082 64.1993L69.6016 63.8507L69.0899 63.5241L68.5503 63.2163L67.9724 62.9368L67.3667 62.6762L66.7227 62.4438L66.0509 62.2302L65.3338 62.0481L64.5854 61.8879L63.8021 61.756L62.9806 61.6555L62.1208 61.5833L61.2261 61.5362L60.2967 61.5205ZM65.5461 79.1328V79.293L65.5392 79.4597L65.5253 79.6265L65.5113 79.8002L65.487 79.9669L65.4661 80.1406L65.4347 80.3073L65.393 80.4741L65.3756 80.5341L65.3477 80.6211L65.3268 80.7011L65.3025 80.7545L65.2746 80.8211L65.2433 80.888L65.1632 81.0548L65.0727 81.2149L64.9787 81.3751L64.8743 81.5352L64.7629 81.6888L64.6445 81.849L64.5192 82.0022L64.3869 82.1492L64.2442 82.2958L64.105 82.4428L63.9483 82.5829L63.7882 82.7229L63.6246 82.8564L63.454 82.9833L63.2695 83.1101L63.085 83.2301L62.8901 83.3438L62.6986 83.4572L62.4932 83.5573L62.2844 83.6572L62.072 83.7508L61.8492 83.8309L61.6264 83.911L61.3897 83.9844L61.153 84.0444L60.9163 84.1044L60.6657 84.1512L60.415 84.1911L60.1609 84.2247L59.8964 84.2445L59.6283 84.2646H59.127L58.8973 84.2514L58.6745 84.2379L58.4517 84.2112L58.2394 84.1779L58.0305 84.1446L57.8251 84.0978L57.6232 84.0444L57.4387 83.991L57.2473 83.9241L57.0697 83.851L56.8992 83.7709L56.7286 83.6908L56.5754 83.5972L56.4188 83.497L56.2795 83.3972L56.1368 83.2835L56.0115 83.1635L55.8862 83.0433L55.7748 82.9098L55.6703 82.7697L55.5694 82.6297L55.4789 82.4761L55.3988 82.3225L55.3327 82.1624L55.2665 81.989L55.2143 81.8154L55.1691 81.6354L55.1308 81.4417L55.1099 81.2482L55.096 81.0482L55.089 80.8412L55.096 80.6076L55.1168 80.3874L55.1551 80.1673L55.1969 79.9537L55.2561 79.7534L55.3327 79.5533L55.4197 79.3665L55.5172 79.1796L55.6286 78.9994L55.7469 78.8326L55.8792 78.6655L56.0254 78.5054L56.1821 78.3521L56.3526 78.2117L56.5302 78.0717L56.7216 77.9382L56.9235 77.8048L57.1289 77.6848L57.3517 77.5711L57.5814 77.4577L57.8182 77.351L58.0688 77.2508L58.3194 77.1575L58.5875 77.0708L58.866 76.9838L59.1479 76.9107L59.4369 76.8372L59.7397 76.7637L60.0426 76.7037L60.3628 76.6437L60.6796 76.5904L61.0138 76.5436L61.3236 76.5034L61.6473 76.4635L61.9746 76.4302L62.3157 76.3966L62.6534 76.3768L63.0084 76.3501L63.3635 76.3366L63.729 76.3234L63.9483 76.3165L64.1711 76.3099L64.4009 76.3033H65.5461V79.1328ZM99.3821 62.3025V78.1719L99.3682 78.3986L99.3439 78.6191L99.309 78.8326L99.2708 79.0462L99.2185 79.2462L99.1524 79.4466L99.0723 79.6334L99.0062 79.7867L98.9227 79.9402L98.8356 80.0938L98.7451 80.2474L98.6511 80.394L98.5467 80.5476L98.4353 80.7011L98.3169 80.8478L98.1916 80.9948L98.0663 81.1414L97.9236 81.2884L97.7843 81.4285L97.6381 81.5619L97.4815 81.6954L97.3179 81.8223L97.1473 81.9488L96.9698 82.0691L96.7922 82.1891L96.6008 82.2958L96.4093 82.4026L96.2005 82.4962L95.9951 82.5895L95.7792 82.6765L95.5565 82.7496L95.3302 82.8231L95.0935 82.8831L94.8463 82.9365L94.5957 82.9767L94.345 83.0166L94.077 83.0367L93.8124 83.0568H93.5305L93.1893 83.0502L92.8586 83.0301L92.5314 82.9968L92.2216 82.9434L91.9257 82.8831L91.6368 82.803L91.3652 82.7097L91.1042 82.603L90.8535 82.4896L90.6168 82.3561L90.3871 82.2092L90.1712 82.049L89.9728 81.8823L89.7744 81.6954L89.5969 81.5019L89.4263 81.295L89.2627 81.0749L89.1165 80.8412L88.9807 80.5944L88.8484 80.3406L88.737 80.0737L88.6256 79.7936L88.5317 79.4999L88.4481 79.1994L88.375 78.886L88.3089 78.5657L88.2566 78.2318L88.2114 77.8848L88.1766 77.5312L88.1522 77.1641L88.1383 76.7904L88.1313 76.4035V62.2899H79.1502V78.2786L79.1641 78.6589L79.1815 79.0261L79.2024 79.3932L79.2337 79.7534L79.2685 80.107L79.3138 80.4474L79.359 80.7878L79.4182 81.1147L79.4774 81.4351L79.5435 81.7488L79.6236 82.0556L79.7071 82.3561L79.7942 82.6498L79.8847 82.9365L79.9856 83.2103L80.0901 83.4839L80.2084 83.7508L80.3198 84.0111L80.4451 84.2646L80.5704 84.5114L80.6958 84.7516L80.8385 84.9853L80.9777 85.2189L81.117 85.4391L81.2667 85.6592L81.4233 85.8728L81.5834 86.0731L81.747 86.2732L81.9176 86.4669L82.0882 86.6538L82.2657 86.8337L82.4502 87.014L82.6417 87.1807L82.8331 87.3478L83.0281 87.5011L83.2335 87.6546L83.4354 87.8016L83.6477 87.9417L83.8635 88.0751L84.0863 88.202L84.3056 88.322L84.5354 88.4353L84.7651 88.549L85.0018 88.6489L85.2455 88.7491L85.4892 88.8357L85.7433 88.9227L86.0009 89.0028L86.2515 89.076L86.5196 89.1495L86.7772 89.2094L87.0522 89.2697L87.3168 89.3231L87.5918 89.3765L87.8737 89.4164L88.1522 89.4566L88.4342 89.4899L88.7231 89.5166L89.012 89.5433L89.3079 89.5634L89.6038 89.57L89.9067 89.5831H90.4776L90.7352 89.5766L90.9858 89.57L91.2364 89.5565L91.4906 89.5367L91.7342 89.5166L91.9779 89.4965L92.2146 89.4632L92.4444 89.4365L92.6741 89.3963L92.9039 89.363L93.1232 89.3162L93.339 89.2763L93.5548 89.2229L93.7672 89.1696L93.976 89.1162L94.3729 88.9959L94.7663 88.8693L95.1352 88.7359L95.4973 88.6024L95.8454 88.4554L96.1796 88.3088L96.4963 88.1486L96.7992 87.9885L97.0881 87.8214L97.3701 87.6546L97.6381 87.4813L97.8957 87.3076L98.1394 87.1274L98.3692 86.9405L98.585 86.7536L98.7904 86.5602L98.9888 86.3733L99.1768 86.1865L99.3439 86.0062L99.5075 85.8329L99.6641 85.6661L99.8034 85.4991L99.9287 85.3458L100.047 85.1856L101.203 88.9761H108.496V62.3025H99.3821ZM27.6954 53.3806V62.2899H23.5011V68.3697H27.6954V79.2195L27.7027 79.5533L27.71 79.8802L27.7177 80.2072L27.7323 80.5209L27.7546 80.8346L27.7842 81.1414L27.8138 81.4417L27.8507 81.7422L27.8876 82.0289L27.9321 82.3159L27.984 82.5964L28.0432 82.8699L28.1023 83.1368L28.1688 83.4038L28.2353 83.6572L28.3095 83.911L28.3906 84.1578L28.4793 84.398L28.5681 84.6317L28.6645 84.8584L28.7679 85.0855L28.8717 85.299L28.9824 85.5126L29.1007 85.7126L29.2191 85.913L29.3451 86.1064L29.4781 86.2933L29.6187 86.4801L29.7593 86.6538L29.9073 86.8205L30.0625 86.9873L30.2178 87.1409L30.3657 87.2743L30.5137 87.4078L30.6689 87.5347L30.8245 87.6612L30.9944 87.7815L31.1646 87.9015L31.3495 88.0217L31.5347 88.1351L31.7195 88.2485L31.9193 88.3553L32.1188 88.4554L32.3259 88.5622L32.5407 88.6558L32.7551 88.7491L32.9845 88.8426L33.2063 88.9227L33.443 89.0094L33.6797 89.0829L33.9237 89.1561L34.1681 89.2229L34.4194 89.2895L34.6784 89.3429L34.9371 89.3963L35.2051 89.4431L35.4697 89.4899L35.7447 89.5298L36.0162 89.5565L36.2982 89.5831L36.5801 89.6098L36.8691 89.6233L37.158 89.6299L37.4539 89.6365L37.9412 89.6299L38.3903 89.6168L38.815 89.5967L39.1979 89.57L39.5599 89.5367L39.8941 89.4965L40.2109 89.4497L40.4998 89.3963L40.7818 89.3429L41.0394 89.2829L41.2831 89.2163L41.5267 89.1495L41.9862 89.0028L42.4388 88.8492V82.6498L42.3204 82.6896L42.1638 82.7298L41.9793 82.7697L41.7495 82.803L41.4919 82.8366L41.203 82.8564L40.8932 82.8765L40.559 82.8831L40.2631 82.8765L39.9881 82.8633L39.7235 82.8366L39.4729 82.7964L39.2362 82.7496L39.0134 82.6962L38.7976 82.6297L38.5992 82.5496L38.4147 82.4629L38.2371 82.3693L38.0666 82.256L37.9169 82.1426L37.7707 82.0157L37.6384 81.8823L37.5131 81.7353L37.4017 81.5751L37.2972 81.415L37.1998 81.235L37.1127 81.0548L37.0292 80.8613L36.9631 80.6544L36.8969 80.4474L36.8447 80.2207L36.7925 79.9936L36.7577 79.7534L36.7194 79.4999L36.6915 79.2462L36.6672 78.9793L36.6532 78.6991L36.6393 78.4187L36.6324 78.1251V68.3697H42.3413V62.2899H36.6324V53.3806H27.6954ZM95.9881 53.3743L90.4393 60.569H96.8584L104.68 53.3743H95.9881Z" fill="#FFF212"/>
</svg>
