<svg width="150" height="150" viewBox="0 0 150 150" fill="none" xmlns="http://www.w3.org/2000/svg">
<g clip-path="url(#clip0_239_2)">
<path d="M16.5498 101.719C12.0908 101.561 8.41992 100.336 5.57813 98.0479C5.02442 97.6143 3.72363 96.3105 3.29004 95.7598C2.14453 94.3008 1.35645 92.8799 0.802735 91.3008C-0.814452 86.4463 0.0146492 80.0918 3.16992 73.1045C5.89453 67.1455 10.0781 61.2246 17.3789 53.0156C18.4453 51.791 21.6416 48.2783 21.6797 48.2783C21.6797 48.2783 21.5215 48.5947 21.2842 48.9492C19.3887 52.1455 17.7715 55.8574 16.8633 59.1328C15.4424 64.3418 15.6006 68.8037 17.376 72.2754C18.6006 74.6426 20.6514 76.7344 22.9805 77.8799C27.0469 79.8926 33.0439 80.0508 40.3066 78.3545C40.8193 78.2373 65.6865 71.6455 95.5635 63.6709C125.52 55.6992 149.991 49.1865 149.991 49.1865C149.991 49.1865 80.5283 78.9053 44.4521 94.3359C38.7305 96.7822 37.2305 97.374 34.5469 98.3232C27.6797 100.731 21.5215 101.915 16.5498 101.719Z" fill="black"/>
</g>
<defs>
<clipPath id="clip0_239_2">
<rect width="150" height="150" fill="white"/>
</clipPath>
</defs>
</svg>
