<svg width="131" height="16" viewBox="0 0 131 16" fill="none" xmlns="http://www.w3.org/2000/svg">
<g clip-path="url(#clip0_241_283)">
<path d="M106.18 0C103.285 0 101.222 0.626661 99.5383 2.02168C97.8322 3.44693 96.9222 5.69282 96.9222 7.94056V8.05358C96.9222 10.507 97.7118 12.3494 99.4613 13.8936C101.095 15.343 103.475 16.002 106.122 16C108.471 15.9935 110.484 15.4537 111.876 14.4377C113.416 13.3048 114.466 11.7142 114.591 9.62172H109.876C109.741 10.5007 109.177 12.4019 106.129 12.4019C104.888 12.4019 103.959 12.0547 103.169 11.335C102.4 10.6375 101.84 9.5612 101.84 8.10571V7.886C101.84 6.43253 102.4 5.34584 103.169 4.65035C103.959 3.93066 104.896 3.59615 106.131 3.59615C109.038 3.59615 109.663 5.28336 109.845 6.38607H114.576C114.46 4.16654 113.375 2.60814 111.841 1.55986C110.316 0.523677 108.536 0 106.18 0ZM7.90965 0.493971C5.40536 0.493971 3.52178 0.927116 2.25826 1.7859C0.992671 2.64871 0.361801 3.74937 0.361801 5.08391C0.361801 5.91648 0.547694 6.59383 0.921993 7.11192C1.29423 7.63203 1.82785 8.05953 2.52061 8.39215C3.21338 8.7268 4.03636 9.00084 4.99176 9.21252C5.94715 9.4262 7.00825 9.64202 8.17251 9.86579C9.09481 10.0331 9.77484 10.1967 10.2174 10.3539C10.6558 10.5112 10.875 10.8212 10.875 11.2849C10.875 11.7667 10.6189 12.1197 10.1019 12.3434C9.58496 12.5631 8.97499 12.6781 8.27395 12.6781C7.45918 12.6962 6.82831 12.6194 6.37749 12.4521C5.92668 12.2868 5.62075 12.1136 5.35606 11.8636C5.10377 11.6217 4.87838 11.3435 4.74189 11.0895C4.61575 10.8577 4.50802 10.5994 4.50802 10.3958H0C0 10.8958 0.0927321 11.4626 0.278847 12.0916C0.464961 12.7226 0.839314 13.3152 1.39973 13.8716C1.96014 14.428 2.75644 14.8976 3.79042 15.2746C4.82232 15.6556 6.18509 15.8451 7.87667 15.8451C9.74403 15.8451 11.2143 15.6333 12.2937 15.2059C13.3691 14.7806 14.1839 14.2846 14.7319 13.7201C15.282 13.1537 15.6276 12.5975 15.7723 12.0511C15.9129 11.5048 15.9852 11.0996 15.9852 10.8416C15.9852 10.0049 15.7804 9.3257 15.375 8.79552C14.9697 8.26734 14.4571 7.84584 13.8429 7.53136C13.2266 7.21486 12.5563 6.97519 11.8325 6.80989C11.1066 6.64256 10.4245 6.49121 9.78762 6.36219C9.17344 6.25132 8.60239 6.1506 8.07506 6.05578C7.54773 5.96506 7.09095 5.86226 6.70631 5.75131C6.32168 5.63842 6.01951 5.50519 5.80031 5.34795C5.58119 5.18869 5.47149 4.98152 5.47149 4.72147C5.47149 4.3707 5.68866 4.10419 6.12913 3.93082C6.56961 3.75342 7.12828 3.66484 7.81071 3.66484C8.47038 3.66484 8.98097 3.73513 9.34286 3.87431C9.70476 4.00938 9.99617 4.18895 10.2009 4.38046C10.4015 4.56794 10.526 4.69287 10.6377 4.87833C10.7865 5.12226 10.8832 5.41689 10.906 5.58421H15.458C15.458 5.34231 15.4351 5.03582 15.3915 4.66691C15.3481 4.29598 15.2262 3.90496 15.0297 3.49775C14.8312 3.09053 14.5291 2.69135 14.1217 2.30228C13.7144 1.9132 13.15 1.57024 12.4242 1.2739C11.6115 0.941274 10.7823 0.725542 9.93654 0.632809C9.09075 0.540077 8.41423 0.493971 7.90965 0.493971ZM78.4344 0.796005V4.99915H84.3986V15.4096H89.7257V4.99915H95.6814V0.796005H78.4344ZM33.1568 0.797505V15.528H37.3855V7.33312L40.7771 15.528H44.1352L47.5269 7.25469V15.528H51.7556V0.797505H45.9447L42.5511 9.69776L38.9636 0.797505H33.1568ZM17.5444 0.797999V15.528H30.897V12.1433H22.0029V9.54285H29.9975V6.35396H22.0029V4.18273H30.7131V0.797999H17.5444ZM117.442 0.797999V15.4096H131V11.4018H122.583V0.797999H117.442ZM54.5835 0.829664V15.5095H59.7592V10.6414H64.0338C65.0533 10.6414 65.9386 10.5425 66.6624 10.3408C67.3944 10.1412 68.0105 9.86488 68.4924 9.51411C68.9804 9.16334 69.361 8.76229 69.6277 8.32887C69.8924 7.90956 70.0803 7.46429 70.1899 7.00869C70.2913 6.57527 70.341 6.15176 70.3368 5.75866C70.3401 5.35548 70.2913 4.92994 70.1899 4.4945C70.0824 4.03891 69.8944 3.59341 69.6297 3.16604C69.365 2.73262 68.9825 2.33177 68.4924 1.97496C68.0043 1.62419 67.3901 1.34157 66.6664 1.13998C65.9384 0.936369 65.0533 0.831682 64.0338 0.829664H59.7592H59.0191H54.5835ZM59.7841 4.04535H63.4341C63.7567 4.04535 64.071 4.07353 64.3646 4.13401C64.6355 4.19046 64.8629 4.28077 65.0572 4.40584C65.2227 4.51873 65.3554 4.66627 65.4505 4.86181C65.5559 5.07147 65.6093 5.36754 65.6134 5.73041C65.6101 6.06102 65.5496 6.3292 65.4295 6.53079C65.3096 6.73843 65.1527 6.8979 64.9583 7.02087C64.7308 7.15989 64.4781 7.26479 64.2072 7.32729C63.9218 7.39373 63.6386 7.42569 63.3657 7.42569H59.7841V4.04535Z" fill="#E61837"/>
</g>
<defs>
<clipPath id="clip0_241_283">
<rect width="131" height="16" fill="white"/>
</clipPath>
</defs>
</svg>
