<svg width="132" height="65" viewBox="0 0 132 65" fill="none" xmlns="http://www.w3.org/2000/svg">
<path fill-rule="evenodd" clip-rule="evenodd" d="M19.0194 45.779C19.0194 45.779 26.724 25.8888 27.6656 23.5365C28.2364 22.112 29.7703 20.499 31.9574 22.0248C34.4336 23.7521 34.6857 23.9298 36.105 24.9664C37.2904 25.8328 38.4634 28.3553 37.157 31.2829C36.0012 33.8744 26.9497 54.5878 25.6424 57.439C24.5287 59.8677 22.6711 64.3222 18.9568 64.3222C14.4376 64.3222 13.323 60.9215 12.3329 58.8969L0.757371 31.5275C-0.362122 28.7475 -0.356355 26.9836 1.56219 25.1302L5.02858 22.1336C8.18606 19.8072 9.04113 22.514 9.98104 24.5624C10.972 26.7228 19.0194 45.779 19.0194 45.779ZM45.6747 22.6734H50.9121C52.8883 22.6734 53.9148 23.3038 53.9148 26.1172V60.6705C53.9148 63.2619 52.8406 64.5658 51.5193 64.5658H45.4852C43.8344 64.5658 42.6893 63.6445 42.6893 60.622V26.9114C42.6885 23.1648 44.0897 22.6734 45.6747 22.6734ZM54.7402 8.20541C54.7402 10.3816 54.0793 12.4687 52.9029 14.0075C51.7265 15.5463 50.1309 16.4108 48.4672 16.4108C46.8035 16.4108 45.208 15.5463 44.0316 14.0075C42.8552 12.4687 42.1943 10.3816 42.1943 8.20541C42.1943 6.0292 42.8552 3.94213 44.0316 2.40331C45.208 0.864499 46.8035 0 48.4672 0C50.1309 0 51.7265 0.864499 52.9029 2.40331C54.0793 3.94213 54.7402 6.0292 54.7402 8.20541ZM77.6251 45.5645C77.6251 45.5645 85.3289 25.6744 86.2713 23.3221C86.8422 21.8976 88.376 20.2846 90.5639 21.8103C93.0402 23.5376 93.2922 23.7154 94.7116 24.752C95.897 25.6183 97.07 28.1408 95.7643 31.0685C94.6086 33.66 85.5571 54.3734 84.2498 57.2245C83.1352 59.6544 81.2785 64.1078 77.5641 64.1078C73.045 64.1078 71.9304 60.7071 70.9403 58.6824L59.3623 31.3109C58.2428 28.5309 58.2486 26.767 60.1671 24.9136L63.6343 21.917C66.7918 19.5906 67.6469 22.2974 68.5868 24.3469C69.5769 26.5073 77.6251 45.5645 77.6251 45.5645ZM115.078 22.2414C105.733 22.2414 98.1574 31.812 98.1574 43.6207C98.1574 55.4272 105.733 65 115.078 65C124.424 65 132 55.4283 132 43.6207C132 31.812 124.425 22.2414 115.078 22.2414ZM114.996 52.2582C111.258 52.2582 108.227 48.3909 108.227 43.6207C108.227 38.8504 111.258 34.9832 114.996 34.9832C118.734 34.9832 121.765 38.8504 121.765 43.6207C121.765 48.3909 118.734 52.2582 114.996 52.2582Z" fill="#6D3189"/>
</svg>
